<?xml version="1.0" encoding="UTF-8"?><svg xmlns="http://www.w3.org/2000/svg" xmlns:xlink="http://www.w3.org/1999/xlink" height="941.9" preserveAspectRatio="xMidYMid meet" version="1.0" viewBox="14.9 406.5 3970.4 941.9" width="3970.4" zoomAndPan="magnify"><g><path d="M 86.091152 1840.902783 C 939.801738 2631.165151 1686.506463 2854.714108 2202.445296 2916.114062 C 3629.270121 3085.992067 4982.117364 2217.415555 6315.666106 2216.343416 C 7170.352819 2215.687331 7881.804977 2526.703619 7881.804977 2526.703619 C 7930.019223 2547.794351 7976.553251 2569.333141 8022.383187 2591.832056 C 8290.673941 2723.449105 9167.619537 3153.664833 9539.795747 4060.454295 C 9648.721857 4325.784665 9837.194271 4785.012151 9609.628793 5151.92368 C 9600.011547 5167.493696 9417.299879 5452.362597 9097.610468 5493.279898 C 8665.842539 5548.535055 8343.672806 5112.702599 8107.722242 4793.525254 C 7996.299809 4642.817732 7767.470167 4333.241631 7868.763288 4179.093663 C 7925.554645 4092.76248 8081.334824 4062.134513 8124.764449 4110.82882 C 8172.32261 4164.115723 8085.447357 4312.406932 8022.383187 4418.036615 C 7800.322423 4790.052804 7593.863679 5135.985615 7201.204815 5218.716332 C 6691.26676 5326.154249 6070.226313 4946.841114 5989.255824 4473.675822 C 5928.367937 4118.045755 6190.593905 3814.390421 6387.547417 3586.296875 C 6483.575856 3475.09847 6790.495614 3141.999322 7800.53045 2745.451955 C 8131.117272 2615.627138 8553.267956 2451.28585 9148.817101 2335.846896 C 10287.892652 2115.034293 11188.505314 2240.84259 11367.600514 2267.550049 C 12753.604051 2474.552864 12911.992568 3019.839498 13791.098444 3052.643747 C 14375.398132 3074.486577 15226.900432 2868.059837 16299.999437 1755.531725" fill="none" stroke="#100f0d" stroke-miterlimit="10" stroke-width="73.737" transform="matrix(.2441 0 0 -.2441 0 1770.67)"/></g></svg>